<svg xmlns="http://www.w3.org/2000/svg" width="1400" height="277" viewBox="0 0 1400 277"><rect width="1400" height="277" fill="#11112f"/><text transform="translate(135 120)" fill="#f9faf9" font-size="16" font-family="ZillaSlab-Medium, Zilla Slab" font-weight="500" opacity="0.445"><tspan x="0" y="0">E-Mail</tspan><tspan x="0" y="25">Address</tspan></text><text transform="translate(732 114)" fill="#f9faf9" font-size="16" font-family="ZillaSlab-Medium, Zilla Slab" font-weight="500" opacity="0.445"><tspan x="0" y="0">Home</tspan><tspan x="0" y="27">Become a Sponsor</tspan><tspan x="0" y="54">Actions</tspan><tspan x="0" y="81">About</tspan></text><text transform="translate(933 114)" fill="#f9faf9" font-size="16" font-family="ZillaSlab-Medium, Zilla Slab" font-weight="500" opacity="0.445"><tspan x="0" y="0">Twitter</tspan></text><text transform="translate(1094 116)" fill="#f9faf9" font-size="16" font-family="ZillaSlab-Medium, Zilla Slab" font-weight="500" opacity="0.445"><tspan x="0" y="0">Impressum</tspan><tspan x="0" y="32">Statutes</tspan><tspan x="0" y="64">Inria Foundation</tspan></text><text transform="translate(933 88)" fill="#f67242" font-size="16" font-family="ZillaSlab-Medium, Zilla Slab" font-weight="500"><tspan x="0" y="0">Social Media</tspan></text><text transform="translate(1094 88)" fill="#f67242" font-size="16" font-family="ZillaSlab-Medium, Zilla Slab" font-weight="500"><tspan x="0" y="0">Legal</tspan></text><text transform="translate(732 88)" fill="#f67242" font-size="16" font-family="ZillaSlab-Medium, Zilla Slab" font-weight="500"><tspan x="0" y="0">Sitemap</tspan></text><text transform="translate(135 88)" fill="#f67242" font-size="16" font-family="ZillaSlab-Medium, Zilla Slab" font-weight="500"><tspan x="0" y="0">OCaml Software Foundation</tspan></text><g transform="translate(135 168)"><g transform="translate(3.632 17.013)"><path d="M25.083,116.621l-.026.037a.246.246,0,0,1,.024-.042S25.081,116.621,25.083,116.621Z" transform="translate(-25.033 -116.617)" fill="#f67242"/><path d="M146.671,166.32l-.008,13.238h-1.75l-1.166-11.789a14.766,14.766,0,0,0,1.6-.706c.6-.312,1.218-.686,1.31-.749a.008.008,0,0,1,.012.006Z" transform="translate(-126.408 -159.063)" fill="#f67242"/><path d="M24.916,116.9a.317.317,0,0,0-.022.037s0,0,0-.007Z" transform="translate(-24.892 -116.859)" fill="#f67242"/><path d="M39.828,167.725a14.5,14.5,0,0,0,1.4.827c.626.292,1.364.581,1.364.581l-2.849,4.741,2,6.894h-2l-2.505-6.978Z" transform="translate(-35.439 -160.269)" fill="#f67242"/></g><path d="M18.894,51.137l.027,12.593H17.274l-.828-5.525c-.5-3.184-1.016-6.617-1.016-6.617-.135.007-.273.01-.412.01a11.165,11.165,0,0,1-5.325-1.376,16.587,16.587,0,0,1-2.182-1.553c-.834,3.689-4.865,7.1-4.865,7.1L2.4,63.715l-1.671,0L0,55.216a11.366,11.366,0,0,0,2.346-4.41,7.754,7.754,0,0,0,.2-2.341s-.738-.057-.741-.057a7.466,7.466,0,0,1-.141-1.654,6.633,6.633,0,0,1,.607-2.771,4.516,4.516,0,0,1,.715-1.124A7.14,7.14,0,0,1,5.2,41.17,7.166,7.166,0,0,0,6.224,40.7a10.735,10.735,0,0,0,1.57-1.763c.534-.616.991-1.326,1.567-1.9a2.594,2.594,0,0,1,1.669-.654,2.078,2.078,0,0,1,1.479.614c.386.386,1.83,2.686,2.547,2.686.759,0,1.857-2.128,2.515-2.686a2.717,2.717,0,0,1,.518-.376,2.063,2.063,0,0,1,.964-.238,2.105,2.105,0,0,1,1.482.614c.264.267,2.107,3.335,2.681,4.022.689-.231,1.672-2.136,1.073-6.576-.056.006-3.087-.938-3.087-.938-.459.471-1.991.166-1.705-.913.021-.08,1.517-1.514,1.517-1.514l2.39.094a4.741,4.741,0,0,1,2.631-.4c.007.011,2.168.557,2.168.557s.3,3.32.3,6.8C28.5,43.352,25.836,49.478,18.894,51.137Z" transform="translate(0 -26.222)" fill="#f67242"/><path d="M28.618,5.779l-1.183-.785,1.3-1.707-1.945-.66L27.23,1.32l1.9.694V0h1.456V2.013l1.9-.694.444,1.308-1.946.66L32.281,5,31.1,5.78l-1.24-1.695Z" transform="translate(-22.878)" fill="#f67242"/></g></svg>