<svg xmlns="http://www.w3.org/2000/svg" width="86.315" height="76.951" viewBox="0 0 86.315 76.951"><g transform="translate(-332.156 -3484)"><g transform="translate(-255.211 1675)"><path d="M43,0C66.748,0,89.471,9.346,89.471,33.094S72.345,76.951,48.6,76.951,3.156,56.842,3.156,33.094,19.252,0,43,0Z" transform="translate(584.211 1809)" fill="#f67242" opacity="0.152"/></g><g transform="translate(-69.928 3082.084)"><g transform="translate(424 426.5)"><path d="M424,472h41.717v4.316a2.877,2.877,0,0,1-2.877,2.877H426.877A2.877,2.877,0,0,1,424,476.316Z" transform="translate(-424 -450.183)" fill="#fcbb51"/><circle cx="1.678" cy="1.678" r="1.678" transform="translate(19.18 23.256)" fill="#3d42ec"/><path d="M460.734,485h3.6a4.456,4.456,0,0,0,.375,3.148,6.485,6.485,0,0,0,2.5,2.606H454.5a6.484,6.484,0,0,0,2.5-2.606,4.456,4.456,0,0,0,.375-3.148Z" transform="translate(-439.875 -456.949)" fill="#fcbb51"/><rect width="40.278" height="28.291" rx="5" transform="translate(0.719)" fill="none" stroke="#3d42ec" stroke-width="3"/><path d="M451,496.5h15.824" transform="translate(-438.053 -462.935)" fill="none" stroke="#3d42ec" stroke-linecap="round" stroke-linejoin="round" stroke-width="3"/></g></g></g></svg>