<svg xmlns="http://www.w3.org/2000/svg" width="86.315" height="76.951" viewBox="0 0 86.315 76.951"><g transform="translate(-709.156 -3803)"><g transform="translate(121.789 1994)"><path d="M43,0C66.748,0,89.471,9.346,89.471,33.094S72.345,76.951,48.6,76.951,3.156,56.842,3.156,33.094,19.252,0,43,0Z" transform="translate(584.211 1809)" fill="#3b55f2" opacity="0.152"/></g><g transform="translate(734 3818)"><g transform="translate(4.275 20.03)"><path d="M25.088,116.622c-.01.015-.021.028-.031.044a.29.29,0,0,1,.028-.049S25.085,116.622,25.088,116.622Z" transform="translate(-25.029 -116.617)" fill="#3b55f2"/><path d="M147.189,166.322l-.009,15.585h-2.06l-1.372-13.879a17.383,17.383,0,0,0,1.885-.832c.705-.368,1.434-.807,1.543-.881a.009.009,0,0,1,.014.007Z" transform="translate(-123.334 -157.777)" fill="#3b55f2"/><path d="M24.92,116.9a.374.374,0,0,0-.026.044s0-.005,0-.008Z" transform="translate(-24.892 -116.851)" fill="#3b55f2"/><path d="M40.286,167.725a17.074,17.074,0,0,0,1.652.974c.736.344,1.606.684,1.606.684l-3.354,5.582,2.357,8.116H40.191l-2.95-8.215Z" transform="translate(-35.12 -158.947)" fill="#3b55f2"/></g><path d="M22.243,54.76l.032,14.825H20.336l-.974-6.5c-.593-3.748-1.2-7.791-1.2-7.791-.159.008-.322.012-.485.012a13.145,13.145,0,0,1-6.269-1.62,19.527,19.527,0,0,1-2.569-1.828c-.981,4.343-5.728,8.365-5.728,8.365l-.292,9.349-1.967,0L0,59.561a13.381,13.381,0,0,0,2.762-5.192A9.129,9.129,0,0,0,3,51.613s-.868-.067-.872-.067A8.79,8.79,0,0,1,1.961,49.6a7.809,7.809,0,0,1,.714-3.262,5.317,5.317,0,0,1,.842-1.323,8.406,8.406,0,0,1,2.6-1.99,8.436,8.436,0,0,0,1.21-.555A12.638,12.638,0,0,0,9.175,40.4c.629-.725,1.166-1.561,1.844-2.239a3.054,3.054,0,0,1,1.965-.77,2.446,2.446,0,0,1,1.742.723c.455.455,2.155,3.162,3,3.162.893,0,2.187-2.505,2.961-3.162a3.2,3.2,0,0,1,.61-.443,2.428,2.428,0,0,1,1.135-.28,2.478,2.478,0,0,1,1.745.723c.311.315,2.48,3.926,3.156,4.734.811-.272,1.968-2.515,1.263-7.741-.066.007-3.634-1.1-3.634-1.1-.54.554-2.344.2-2.007-1.075.025-.094,1.786-1.782,1.786-1.782l2.814.11a5.581,5.581,0,0,1,3.1-.474c.008.013,2.552.656,2.552.656s.349,3.909.349,8.011C33.553,45.595,30.417,52.806,22.243,54.76Z" transform="translate(0 -25.428)" fill="#3b55f2"/><path d="M28.942,6.8,27.549,5.88l1.527-2.01-2.29-.777.522-1.54,2.237.817V0H31.26V2.37L33.5,1.554l.523,1.54-2.291.777,1.527,2.01L31.862,6.8l-1.46-2Z" transform="translate(-22.185)" fill="#3b55f2"/></g></g></svg>