<svg xmlns="http://www.w3.org/2000/svg" width="86.315" height="76.951" viewBox="0 0 86.315 76.951"><g transform="translate(-326.156 -2155)"><g transform="translate(-261.211 346)"><path d="M43,0C66.748,0,89.471,9.346,89.471,33.094S72.345,76.951,48.6,76.951,3.156,56.842,3.156,33.094,19.252,0,43,0Z" transform="translate(584.211 1809)" fill="#f6ebe3"/></g><path d="M2142.048,2148.74c-.066,1.882,0,2.754,0,2.754h11.6v-3.322s-.154-2.413-3.838-2.387-6.053,0-6.053,0A4.019,4.019,0,0,0,2142.048,2148.74Z" transform="translate(-1786 51)" fill="#f67242"/><g transform="translate(343.844 2165.296)"><g transform="translate(7 9)"><path d="M20.631,34.263A3.631,3.631,0,1,0,17,30.631,3.635,3.635,0,0,0,20.631,34.263Zm0-5.81a2.179,2.179,0,1,1-2.179,2.179A2.181,2.181,0,0,1,20.631,28.453Z" transform="translate(-9.738 -13.927)" fill="#3b55f2"/><path d="M22.441,39h-5.81A3.635,3.635,0,0,0,13,42.631v2.905a.726.726,0,0,0,.726.726h11.62a.726.726,0,0,0,.726-.726V42.631A3.635,3.635,0,0,0,22.441,39Zm2.179,5.81H14.453V42.631a2.181,2.181,0,0,1,2.179-2.179h5.81a2.181,2.181,0,0,1,2.179,2.179Z" transform="translate(-8.642 -17.212)" fill="#3b55f2"/><path d="M42.586,17.715H30.24V9.726A.726.726,0,0,0,29.514,9H20.8a.727.727,0,0,0-.726.726v7.989H7.726A.727.727,0,0,0,7,18.441v23.24a.726.726,0,0,0,.726.726h34.86a.726.726,0,0,0,.726-.726V18.441A.726.726,0,0,0,42.586,17.715ZM21.525,10.452h7.263v7.263H21.525Zm20.335,30.5H8.453V19.167H41.86Z" transform="translate(-7 -9)" fill="#3b55f2"/><path d="M35,29.726a.726.726,0,0,0,.726.726H45.894a.726.726,0,0,0,0-1.452H35.726A.726.726,0,0,0,35,29.726Z" transform="translate(-14.665 -14.475)" fill="#3b55f2"/><path d="M45.894,35H35.726a.726.726,0,0,0,0,1.452H45.894a.726.726,0,0,0,0-1.452Z" transform="translate(-14.665 -16.118)" fill="#3b55f2"/><path d="M45.894,41H35.726a.726.726,0,0,0,0,1.452H45.894a.726.726,0,0,0,0-1.452Z" transform="translate(-14.665 -17.76)" fill="#3b55f2"/></g></g></g></svg>