<svg xmlns="http://www.w3.org/2000/svg" width="84.789" height="81.349" viewBox="0 0 84.789 81.349"><g transform="translate(-732 -2156.667)"><g transform="translate(148 346)"><path d="M31.8,1.667c23.748,0,52.984,10.106,52.984,33.854S62.22,83.016,38.471,83.016,0,66.748,0,43,8.056,1.667,31.8,1.667Z" transform="translate(584 1809)" fill="#f6ebe3"/></g><path d="M2549.259,2146.726s4.276,3.714,8.29,3.714c.076,0-.386.023,0,0,3.6-.131,7.434-4.131,7.434-4.131s1.859,7.422-3.141,9.127-12.5.946-12.961-1.1S2549.259,2146.726,2549.259,2146.726Z" transform="translate(-1786 51)" fill="#f67242"/><path d="M41.771,18.539,24.438,10.1a1,1,0,0,0-.885,0L6.219,18.771a1,1,0,0,0,0,1.79L10,22.451v5.76L7.929,36.492A1,1,0,0,0,8.656,37.7,9.559,9.559,0,0,0,10.9,38l.009,0c.025,0,.069,0,.094,0l.039,0h0a9.625,9.625,0,0,0,2.3-.3,1,1,0,0,0,.727-1.212L12,28.211V23.452l2.334,1.167v5c0,3.486,4.246,6.216,9.666,6.216s9.666-2.73,9.666-6.216V24.5l8.125-4.17a1,1,0,0,0-.02-1.788Zm-10.1,11.078c0,2.285-3.511,4.216-7.666,4.216s-7.666-1.931-7.666-4.216v-4l7.219,3.61a1,1,0,0,0,.9,0l7.209-3.7Zm-7.672-2.4-9.8-4.9,9.968-1.661a1,1,0,0,0-.33-1.972L11.156,20.793,8.9,19.666l15.1-7.551L39.1,19.461Z" transform="translate(747.334 2173)" fill="#3b55f2"/></g></svg>