<svg xmlns="http://www.w3.org/2000/svg" width="365.385" height="340.083" viewBox="0 0 365.385 340.083"><g fill="none"><path d="M177.4,0c97.977,0,187.983,103.478,187.983,201.455s-139.022,138.629-237,138.629S0,275.379,0,177.4A177.4,177.4,0,0,1,177.4,0Z" stroke="none"/><path d="M 177.4021606445312 0.999969482421875 C 165.4328460693359 0.999969482421875 153.4713439941406 2.20574951171875 141.8499298095703 4.583831787109375 C 130.5243377685547 6.901397705078125 119.3841552734375 10.35952758789062 108.7388000488281 14.86212158203125 C 98.28643798828125 19.28311157226562 88.205078125 24.75506591796875 78.77474975585938 31.1260986328125 C 69.4337158203125 37.43679809570312 60.6497802734375 44.68414306640625 52.66696166992188 52.66696166992188 C 44.68414306640625 60.6497802734375 37.43679809570312 69.4337158203125 31.1260986328125 78.77474975585938 C 24.75506591796875 88.20506286621094 19.28311157226562 98.28642272949219 14.86212158203125 108.7388000488281 C 10.35952758789062 119.3841552734375 6.901397705078125 130.5243377685547 4.583831787109375 141.8499298095703 C 2.20574951171875 153.4713439941406 0.999969482421875 165.4328460693359 0.999969482421875 177.4021606445312 C 0.999969482421875 189.8443450927734 1.50262451171875 201.6296997070312 2.493896484375 212.4309387207031 C 3.528472900390625 223.7046203613281 5.1317138671875 234.3055725097656 7.259033203125 243.9393310546875 C 9.465606689453125 253.9320678710938 12.31048583984375 263.2227783203125 15.71456909179688 271.5533447265625 C 19.2283935546875 280.1524353027344 23.45343017578125 288.0111999511719 28.27230834960938 294.9114379882812 C 33.22991943359375 302.0103454589844 38.97625732421875 308.3242797851562 45.35174560546875 313.6779174804688 C 51.89984130859375 319.1765747070312 59.32083129882812 323.8380126953125 67.40847778320312 327.5328979492188 C 75.70611572265625 331.3236694335938 84.96542358398438 334.216064453125 94.92929077148438 336.1297912597656 C 105.1338500976562 338.0896911621094 116.3907470703125 339.0834655761719 128.3872985839844 339.0834655761719 C 153.7070159912109 339.0834655761719 180.7375640869141 336.3642883300781 206.5567016601562 331.2199401855469 C 220.2684326171875 328.4879150390625 233.5823364257812 325.0834350585938 246.1285247802734 321.1009826660156 C 259.3712463378906 316.8974304199219 271.8429260253906 312.0211486816406 283.1972045898438 306.6076049804688 C 308.1171264648438 294.7261657714844 327.6866455078125 280.3274230957031 341.3622436523438 263.8114624023438 C 345.0078430175781 259.40869140625 348.2673950195312 254.8020629882812 351.0503540039062 250.1195220947266 C 353.912353515625 245.3040771484375 356.3467407226562 240.2795715332031 358.2859802246094 235.1855773925781 C 360.2800598144531 229.9474334716797 361.804443359375 224.4941101074219 362.8167114257812 218.9771118164062 C 363.857666015625 213.3038024902344 364.3854675292969 207.4083862304688 364.3854675292969 201.4546966552734 C 364.3854675292969 189.5101623535156 363.0275573730469 177.2048797607422 360.3494262695312 164.8807983398438 C 357.7468872070312 152.9044799804688 353.8848266601562 140.8440246582031 348.8705749511719 129.0343780517578 C 343.9462890625 117.4367065429688 337.8999633789062 106.0528869628906 330.899658203125 95.19906616210938 C 323.9391174316406 84.40702819824219 316.0313415527344 74.13211059570312 307.3960266113281 64.65985107421875 C 298.6968994140625 55.1175537109375 289.2524719238281 46.38296508789062 279.3251953125 38.6986083984375 C 269.2015991210938 30.8623046875 258.5469665527344 24.09738159179688 247.6571960449219 18.59173583984375 C 236.4380645751953 12.91961669921875 224.8996124267578 8.55078125 213.3622894287109 5.606597900390625 C 201.3838348388672 2.549896240234375 189.2850646972656 0.999969482421875 177.4021606445312 0.999969482421875 M 177.4021606445312 -3.0517578125e-05 C 275.378662109375 -3.0517578125e-05 365.3854675292969 103.4781646728516 365.3854675292969 201.4546966552734 C 365.3854675292969 299.43115234375 226.3638000488281 340.0834655761719 128.3872985839844 340.0834655761719 C 30.41079711914062 340.0834655761719 -3.0517578125e-05 275.378662109375 -3.0517578125e-05 177.4021606445312 C -3.0517578125e-05 79.4256591796875 79.4256591796875 -3.0517578125e-05 177.4021606445312 -3.0517578125e-05 Z" stroke="none" fill="#f87239"/></g></svg>