<?xml version="1.0" encoding="UTF-8" standalone="no"?>
<!-- Generator: Adobe Illustrator 22.1.0, SVG Export Plug-In . SVG Version: 6.00 Build 0)  -->

<svg
   xmlns:dc="http://purl.org/dc/elements/1.1/"
   xmlns:cc="http://creativecommons.org/ns#"
   xmlns:rdf="http://www.w3.org/1999/02/22-rdf-syntax-ns#"
   xmlns:svg="http://www.w3.org/2000/svg"
   xmlns="http://www.w3.org/2000/svg"
   xmlns:xlink="http://www.w3.org/1999/xlink"
   xmlns:sodipodi="http://sodipodi.sourceforge.net/DTD/sodipodi-0.dtd"
   xmlns:inkscape="http://www.inkscape.org/namespaces/inkscape"
   version="1.1"
   id="Calque_1"
   x="0px"
   y="0px"
   viewBox="0 0 374.79998 85.000002"
   xml:space="preserve"
   sodipodi:docname="logo_lexifi_RVB.svg"
   width="374.79999"
   height="85"
   inkscape:version="0.92.3 (2405546, 2018-03-11)"><metadata
   id="metadata4857"><rdf:RDF><cc:Work
       rdf:about=""><dc:format>image/svg+xml</dc:format><dc:type
         rdf:resource="http://purl.org/dc/dcmitype/StillImage" /></cc:Work></rdf:RDF></metadata><defs
   id="defs4855" /><sodipodi:namedview
   pagecolor="#ffffff"
   bordercolor="#666666"
   borderopacity="1"
   objecttolerance="10"
   gridtolerance="10"
   guidetolerance="10"
   inkscape:pageopacity="0"
   inkscape:pageshadow="2"
   inkscape:window-width="1661"
   inkscape:window-height="743"
   id="namedview4853"
   showgrid="false"
   inkscape:zoom="0.37652927"
   inkscape:cx="187.95001"
   inkscape:cy="43.550006"
   inkscape:window-x="0"
   inkscape:window-y="0"
   inkscape:window-maximized="0"
   inkscape:current-layer="Calque_1" />
<style
   type="text/css"
   id="style4500">
	.st0{clip-path:url(#SVGID_2_);}
	.st1{clip-path:url(#SVGID_4_);fill:#0A193A;}
	.st2{clip-path:url(#SVGID_4_);fill:#3C5DAA;}
	.st3{opacity:0.7;clip-path:url(#SVGID_4_);}
	.st4{clip-path:url(#SVGID_6_);}
	.st5{clip-path:url(#SVGID_8_);fill:#3C5DAA;}
	.st6{clip-path:url(#SVGID_10_);}
	.st7{clip-path:url(#SVGID_12_);fill:#5BC5F2;}
	.st8{clip-path:url(#SVGID_14_);}
	.st9{clip-path:url(#SVGID_16_);fill:#0A193A;}
	.st10{clip-path:url(#SVGID_18_);}
	.st11{clip-path:url(#SVGID_20_);fill:#0A193A;}
	.st12{clip-path:url(#SVGID_22_);}
	.st13{clip-path:url(#SVGID_24_);fill:#0A193A;}
	.st14{clip-path:url(#SVGID_26_);}
	.st15{clip-path:url(#SVGID_28_);fill:#0A193A;}
	.st16{clip-path:url(#SVGID_30_);}
	.st17{clip-path:url(#SVGID_32_);fill:#0A193A;}
	.st18{clip-path:url(#SVGID_34_);}
	.st19{clip-path:url(#SVGID_36_);fill:#0A193A;}
	.st20{clip-path:url(#SVGID_38_);}
	.st21{clip-path:url(#SVGID_40_);fill:#0A193A;}
	.st22{clip-path:url(#SVGID_42_);}
	.st23{clip-path:url(#SVGID_44_);fill:#0A193A;}
	.st24{clip-path:url(#SVGID_46_);}
	.st25{clip-path:url(#SVGID_48_);fill:#0A193A;}
	.st26{clip-path:url(#SVGID_50_);}
	.st27{clip-path:url(#SVGID_52_);fill:#0A193A;}
	.st28{clip-path:url(#SVGID_54_);}
	.st29{clip-path:url(#SVGID_56_);fill:#0A193A;}
	.st30{clip-path:url(#SVGID_58_);}
	.st31{clip-path:url(#SVGID_60_);fill:#0A193A;}
	.st32{clip-path:url(#SVGID_62_);}
	.st33{clip-path:url(#SVGID_64_);fill:#0A193A;}
	.st34{clip-path:url(#SVGID_66_);}
	.st35{clip-path:url(#SVGID_68_);fill:#0A193A;}
</style>
<g
   id="g4850"
   transform="translate(-233,-256.2)">
	<defs
   id="defs4503">
		<rect
   id="SVGID_1_"
   width="841.90002"
   height="595.29999"
   x="0"
   y="0" />
	</defs>
	<clipPath
   id="SVGID_2_">
		<use
   xlink:href="#SVGID_1_"
   style="overflow:visible"
   id="use4505"
   x="0"
   y="0"
   width="100%"
   height="100%" />
	</clipPath>
	<g
   class="st0"
   clip-path="url(#SVGID_2_)"
   id="g4848">
		<defs
   id="defs4509">
			<rect
   id="SVGID_3_"
   width="841.90002"
   height="595.29999"
   x="0"
   y="0" />
		</defs>
		<clipPath
   id="SVGID_4_">
			<use
   xlink:href="#SVGID_3_"
   style="overflow:visible"
   id="use4511"
   x="0"
   y="0"
   width="100%"
   height="100%" />
		</clipPath>
		<path
   class="st1"
   d="m 341.2,336.2 v -5 h -5 c -2.8,0 -5,2.2 -5,5 0,2.8 2.2,5 5,5 2.7,0 5,-2.2 5,-5"
   clip-path="url(#SVGID_4_)"
   id="path4514"
   inkscape:connector-curvature="0"
   style="fill:#0a193a" />
		<path
   class="st2"
   d="m 272.2,332.4 -3.5,-3.5 -3.5,3.5 c -2,2 -2,5.1 0,7.1 2,2 5.1,2 7.1,0 1.9,-2 1.9,-5.2 -0.1,-7.1"
   clip-path="url(#SVGID_4_)"
   id="path4516"
   inkscape:connector-curvature="0"
   style="fill:#3c5daa" />
		<polygon
   class="st1"
   points="478.8,300.1 472.8,309 479,317.7 485,308.8 "
   clip-path="url(#SVGID_4_)"
   id="polygon4518"
   style="fill:#0a193a" />
		<path
   class="st1"
   d="m 401.9,308.9 c 0,-1.7 0.1,-3.4 0.5,-5 h -5.5 c -2.8,0 -5,2.2 -5,5 0,0 0,0 0,0 0,2.8 2.2,5 5,5 h 5.4 c -0.2,-1.7 -0.4,-3.4 -0.4,-5"
   clip-path="url(#SVGID_4_)"
   id="path4520"
   inkscape:connector-curvature="0"
   style="fill:#0a193a" />
		<path
   class="st1"
   d="m 445.9,303.9 h -5.4 c 0.3,1.7 0.5,3.4 0.5,5 0,2.6 2,4.8 4.6,5 h 0.3 c 2.8,0 5,-2.2 5,-5 0,-2.8 -2.2,-5 -5,-5"
   clip-path="url(#SVGID_4_)"
   id="path4522"
   inkscape:connector-curvature="0"
   style="fill:#0a193a" />
		<path
   class="st1"
   d="m 533.1,261.2 v 0 c 0,2.8 2.2,5 5,5 h 5 v -5 c 0,-2.8 -2.2,-5 -5,-5 -2.8,0 -5,2.2 -5,5"
   clip-path="url(#SVGID_4_)"
   id="path4524"
   inkscape:connector-curvature="0"
   style="fill:#0a193a" />
		<path
   class="st1"
   d="m 533.1,299.6 v 0 c 0,2.8 2.2,5 5,5 h 5 v -10 h -5 c -2.8,0.1 -5,2.3 -5,5"
   clip-path="url(#SVGID_4_)"
   id="path4526"
   inkscape:connector-curvature="0"
   style="fill:#0a193a" />
		<g
   class="st3"
   clip-path="url(#SVGID_4_)"
   id="g4546"
   style="opacity:0.7">
			<g
   id="g4544">
				<defs
   id="defs4529">
					<rect
   id="SVGID_5_"
   x="263.70001"
   y="283.20001"
   width="57.700001"
   height="57.700001" />
				</defs>
				<clipPath
   id="SVGID_6_">
					<use
   xlink:href="#SVGID_5_"
   style="overflow:visible"
   id="use4531"
   x="0"
   y="0"
   width="100%"
   height="100%" />
				</clipPath>
				<g
   class="st4"
   clip-path="url(#SVGID_6_)"
   id="g4542">
					<defs
   id="defs4535">
						<rect
   id="SVGID_7_"
   x="263.70001"
   y="283.20001"
   width="57.700001"
   height="57.700001" />
					</defs>
					<clipPath
   id="SVGID_8_">
						<use
   xlink:href="#SVGID_7_"
   style="overflow:visible"
   id="use4537"
   x="0"
   y="0"
   width="100%"
   height="100%" />
					</clipPath>
					<path
   class="st5"
   d="m 268.7,340.9 c -1.3,0 -2.6,-0.5 -3.5,-1.5 -2,-2 -2,-5.1 0,-7.1 l 47.7,-47.7 c 2,-2 5.1,-2 7.1,0 2,2 2,5.1 0,7.1 l -47.7,47.7 c -1,1 -2.3,1.5 -3.6,1.5"
   clip-path="url(#SVGID_8_)"
   id="path4540"
   inkscape:connector-curvature="0"
   style="fill:#3c5daa" />
				</g>
			</g>
		</g>
		<g
   class="st3"
   clip-path="url(#SVGID_4_)"
   id="g4566"
   style="opacity:0.7">
			<g
   id="g4564">
				<defs
   id="defs4549">
					<rect
   id="SVGID_9_"
   x="233"
   y="300.20001"
   width="40.700001"
   height="40.700001" />
				</defs>
				<clipPath
   id="SVGID_10_">
					<use
   xlink:href="#SVGID_9_"
   style="overflow:visible"
   id="use4551"
   x="0"
   y="0"
   width="100%"
   height="100%" />
				</clipPath>
				<g
   class="st6"
   clip-path="url(#SVGID_10_)"
   id="g4562">
					<defs
   id="defs4555">
						<rect
   id="SVGID_11_"
   x="233"
   y="300.20001"
   width="40.700001"
   height="40.700001" />
					</defs>
					<clipPath
   id="SVGID_12_">
						<use
   xlink:href="#SVGID_11_"
   style="overflow:visible"
   id="use4557"
   x="0"
   y="0"
   width="100%"
   height="100%" />
					</clipPath>
					<path
   class="st7"
   d="m 268.7,340.9 c -1.3,0 -2.6,-0.5 -3.5,-1.5 l -30.7,-30.7 c -2,-2 -2,-5.1 0,-7.1 2,-2 5.1,-2 7.1,0 l 30.7,30.7 c 2,2 2,5.1 0,7.1 -1,1 -2.3,1.5 -3.6,1.5"
   clip-path="url(#SVGID_12_)"
   id="path4560"
   inkscape:connector-curvature="0"
   style="fill:#5bc5f2" />
				</g>
			</g>
		</g>
		<g
   class="st3"
   clip-path="url(#SVGID_4_)"
   id="g4586"
   style="opacity:0.7">
			<g
   id="g4584">
				<defs
   id="defs4569">
					<rect
   id="SVGID_13_"
   x="256.79999"
   y="276.29999"
   width="21.9"
   height="21.9" />
				</defs>
				<clipPath
   id="SVGID_14_">
					<use
   xlink:href="#SVGID_13_"
   style="overflow:visible"
   id="use4571"
   x="0"
   y="0"
   width="100%"
   height="100%" />
				</clipPath>
				<g
   class="st8"
   clip-path="url(#SVGID_14_)"
   id="g4582">
					<defs
   id="defs4575">
						<rect
   id="SVGID_15_"
   x="256.79999"
   y="276.29999"
   width="21.9"
   height="21.9" />
					</defs>
					<clipPath
   id="SVGID_16_">
						<use
   xlink:href="#SVGID_15_"
   style="overflow:visible"
   id="use4577"
   x="0"
   y="0"
   width="100%"
   height="100%" />
					</clipPath>
					<path
   class="st9"
   d="m 273.7,298.2 c -1.3,0 -2.6,-0.5 -3.5,-1.5 l -11.9,-11.9 c -2,-2 -2,-5.1 0,-7.1 2,-2 5.1,-2 7.1,0 l 11.9,11.9 c 2,2 2,5.1 0,7.1 -1.1,1 -2.4,1.5 -3.6,1.5"
   clip-path="url(#SVGID_16_)"
   id="path4580"
   inkscape:connector-curvature="0"
   style="fill:#0a193a" />
				</g>
			</g>
		</g>
		<g
   class="st3"
   clip-path="url(#SVGID_4_)"
   id="g4606"
   style="opacity:0.7">
			<g
   id="g4604">
				<defs
   id="defs4589">
					<rect
   id="SVGID_17_"
   x="331.20001"
   y="256.20001"
   width="10"
   height="85" />
				</defs>
				<clipPath
   id="SVGID_18_">
					<use
   xlink:href="#SVGID_17_"
   style="overflow:visible"
   id="use4591"
   x="0"
   y="0"
   width="100%"
   height="100%" />
				</clipPath>
				<g
   class="st10"
   clip-path="url(#SVGID_18_)"
   id="g4602">
					<defs
   id="defs4595">
						<rect
   id="SVGID_19_"
   x="331.20001"
   y="256.20001"
   width="10"
   height="85" />
					</defs>
					<clipPath
   id="SVGID_20_">
						<use
   xlink:href="#SVGID_19_"
   style="overflow:visible"
   id="use4597"
   x="0"
   y="0"
   width="100%"
   height="100%" />
					</clipPath>
					<path
   class="st11"
   d="m 336.2,341.2 c -2.8,0 -5,-2.2 -5,-5 v -75 c 0,-2.8 2.2,-5 5,-5 2.8,0 5,2.2 5,5 v 75 c 0,2.8 -2.2,5 -5,5"
   clip-path="url(#SVGID_20_)"
   id="path4600"
   inkscape:connector-curvature="0"
   style="fill:#0a193a" />
				</g>
			</g>
		</g>
		<g
   class="st3"
   clip-path="url(#SVGID_4_)"
   id="g4626"
   style="opacity:0.7">
			<g
   id="g4624">
				<defs
   id="defs4609">
					<rect
   id="SVGID_21_"
   x="331.20001"
   y="331.20001"
   width="58.400002"
   height="10" />
				</defs>
				<clipPath
   id="SVGID_22_">
					<use
   xlink:href="#SVGID_21_"
   style="overflow:visible"
   id="use4611"
   x="0"
   y="0"
   width="100%"
   height="100%" />
				</clipPath>
				<g
   class="st12"
   clip-path="url(#SVGID_22_)"
   id="g4622">
					<defs
   id="defs4615">
						<rect
   id="SVGID_23_"
   x="331.20001"
   y="331.20001"
   width="58.400002"
   height="10" />
					</defs>
					<clipPath
   id="SVGID_24_">
						<use
   xlink:href="#SVGID_23_"
   style="overflow:visible"
   id="use4617"
   x="0"
   y="0"
   width="100%"
   height="100%" />
					</clipPath>
					<path
   class="st13"
   d="m 384.6,341.2 h -48.4 c -2.8,0 -5,-2.2 -5,-5 0,-2.8 2.2,-5 5,-5 h 48.4 c 2.8,0 5,2.2 5,5 0,2.8 -2.2,5 -5,5"
   clip-path="url(#SVGID_24_)"
   id="path4620"
   inkscape:connector-curvature="0"
   style="fill:#0a193a" />
				</g>
			</g>
		</g>
		<g
   class="st3"
   clip-path="url(#SVGID_4_)"
   id="g4646"
   style="opacity:0.7">
			<g
   id="g4644">
				<defs
   id="defs4629">
					<rect
   id="SVGID_25_"
   x="533.09998"
   y="256.20001"
   width="10"
   height="85" />
				</defs>
				<clipPath
   id="SVGID_26_">
					<use
   xlink:href="#SVGID_25_"
   style="overflow:visible"
   id="use4631"
   x="0"
   y="0"
   width="100%"
   height="100%" />
				</clipPath>
				<g
   class="st14"
   clip-path="url(#SVGID_26_)"
   id="g4642">
					<defs
   id="defs4635">
						<rect
   id="SVGID_27_"
   x="533.09998"
   y="256.20001"
   width="10"
   height="85" />
					</defs>
					<clipPath
   id="SVGID_28_">
						<use
   xlink:href="#SVGID_27_"
   style="overflow:visible"
   id="use4637"
   x="0"
   y="0"
   width="100%"
   height="100%" />
					</clipPath>
					<path
   class="st15"
   d="m 538.1,341.2 c -2.8,0 -5,-2.2 -5,-5 v -75 c 0,-2.8 2.2,-5 5,-5 2.8,0 5,2.2 5,5 v 75 c 0,2.8 -2.2,5 -5,5"
   clip-path="url(#SVGID_28_)"
   id="path4640"
   inkscape:connector-curvature="0"
   style="fill:#0a193a" />
				</g>
			</g>
		</g>
		<g
   class="st3"
   clip-path="url(#SVGID_4_)"
   id="g4666"
   style="opacity:0.7">
			<g
   id="g4664">
				<defs
   id="defs4649">
					<rect
   id="SVGID_29_"
   x="533.09998"
   y="256.20001"
   width="54.599998"
   height="10" />
				</defs>
				<clipPath
   id="SVGID_30_">
					<use
   xlink:href="#SVGID_29_"
   style="overflow:visible"
   id="use4651"
   x="0"
   y="0"
   width="100%"
   height="100%" />
				</clipPath>
				<g
   class="st16"
   clip-path="url(#SVGID_30_)"
   id="g4662">
					<defs
   id="defs4655">
						<rect
   id="SVGID_31_"
   x="533.09998"
   y="256.20001"
   width="54.599998"
   height="10" />
					</defs>
					<clipPath
   id="SVGID_32_">
						<use
   xlink:href="#SVGID_31_"
   style="overflow:visible"
   id="use4657"
   x="0"
   y="0"
   width="100%"
   height="100%" />
					</clipPath>
					<path
   class="st17"
   d="m 582.7,266.2 h -44.6 c -2.8,0 -5,-2.2 -5,-5 0,-2.8 2.2,-5 5,-5 h 44.6 c 2.8,0 5,2.2 5,5 0,2.7 -2.2,5 -5,5"
   clip-path="url(#SVGID_32_)"
   id="path4660"
   inkscape:connector-curvature="0"
   style="fill:#0a193a" />
				</g>
			</g>
		</g>
		<g
   class="st3"
   clip-path="url(#SVGID_4_)"
   id="g4686"
   style="opacity:0.7">
			<g
   id="g4684">
				<defs
   id="defs4669">
					<rect
   id="SVGID_33_"
   x="533.09998"
   y="294.70001"
   width="44.799999"
   height="10" />
				</defs>
				<clipPath
   id="SVGID_34_">
					<use
   xlink:href="#SVGID_33_"
   style="overflow:visible"
   id="use4671"
   x="0"
   y="0"
   width="100%"
   height="100%" />
				</clipPath>
				<g
   class="st18"
   clip-path="url(#SVGID_34_)"
   id="g4682">
					<defs
   id="defs4675">
						<rect
   id="SVGID_35_"
   x="533.09998"
   y="294.70001"
   width="44.799999"
   height="10" />
					</defs>
					<clipPath
   id="SVGID_36_">
						<use
   xlink:href="#SVGID_35_"
   style="overflow:visible"
   id="use4677"
   x="0"
   y="0"
   width="100%"
   height="100%" />
					</clipPath>
					<path
   class="st19"
   d="m 573,304.7 h -34.8 c -2.8,0 -5,-2.2 -5,-5 0,-2.8 2.2,-5 5,-5 H 573 c 2.8,0 5,2.2 5,5 0,2.7 -2.3,5 -5,5"
   clip-path="url(#SVGID_36_)"
   id="path4680"
   inkscape:connector-curvature="0"
   style="fill:#0a193a" />
				</g>
			</g>
		</g>
		<g
   class="st3"
   clip-path="url(#SVGID_4_)"
   id="g4706"
   style="opacity:0.7">
			<g
   id="g4704">
				<defs
   id="defs4689">
					<rect
   id="SVGID_37_"
   x="512.90002"
   y="276"
   width="10"
   height="65.099998" />
				</defs>
				<clipPath
   id="SVGID_38_">
					<use
   xlink:href="#SVGID_37_"
   style="overflow:visible"
   id="use4691"
   x="0"
   y="0"
   width="100%"
   height="100%" />
				</clipPath>
				<g
   class="st20"
   clip-path="url(#SVGID_38_)"
   id="g4702">
					<defs
   id="defs4695">
						<rect
   id="SVGID_39_"
   x="512.90002"
   y="276"
   width="10"
   height="65.099998" />
					</defs>
					<clipPath
   id="SVGID_40_">
						<use
   xlink:href="#SVGID_39_"
   style="overflow:visible"
   id="use4697"
   x="0"
   y="0"
   width="100%"
   height="100%" />
					</clipPath>
					<path
   class="st21"
   d="m 517.9,341.2 c -2.8,0 -5,-2.2 -5,-5 V 281 c 0,-2.8 2.2,-5 5,-5 2.8,0 5,2.2 5,5 v 55.1 c 0,2.9 -2.3,5.1 -5,5.1"
   clip-path="url(#SVGID_40_)"
   id="path4700"
   inkscape:connector-curvature="0"
   style="fill:#0a193a" />
				</g>
			</g>
		</g>
		<g
   class="st3"
   clip-path="url(#SVGID_4_)"
   id="g4726"
   style="opacity:0.7">
			<g
   id="g4724">
				<defs
   id="defs4709">
					<rect
   id="SVGID_41_"
   x="392"
   y="303.89999"
   width="59"
   height="10" />
				</defs>
				<clipPath
   id="SVGID_42_">
					<use
   xlink:href="#SVGID_41_"
   style="overflow:visible"
   id="use4711"
   x="0"
   y="0"
   width="100%"
   height="100%" />
				</clipPath>
				<g
   class="st22"
   clip-path="url(#SVGID_42_)"
   id="g4722">
					<defs
   id="defs4715">
						<rect
   id="SVGID_43_"
   x="392"
   y="303.89999"
   width="59"
   height="10" />
					</defs>
					<clipPath
   id="SVGID_44_">
						<use
   xlink:href="#SVGID_43_"
   style="overflow:visible"
   id="use4717"
   x="0"
   y="0"
   width="100%"
   height="100%" />
					</clipPath>
					<path
   class="st23"
   d="m 446,313.9 h -49 c -2.8,0 -5,-2.2 -5,-5 0,-2.8 2.2,-5 5,-5 h 49 c 2.8,0 5,2.2 5,5 0,2.7 -2.3,5 -5,5"
   clip-path="url(#SVGID_44_)"
   id="path4720"
   inkscape:connector-curvature="0"
   style="fill:#0a193a" />
				</g>
			</g>
		</g>
		<g
   class="st3"
   clip-path="url(#SVGID_4_)"
   id="g4746"
   style="opacity:0.7">
			<g
   id="g4744">
				<defs
   id="defs4729">
					<rect
   id="SVGID_45_"
   x="453.89999"
   y="275.89999"
   width="49.599998"
   height="65.300003" />
				</defs>
				<clipPath
   id="SVGID_46_">
					<use
   xlink:href="#SVGID_45_"
   style="overflow:visible"
   id="use4731"
   x="0"
   y="0"
   width="100%"
   height="100%" />
				</clipPath>
				<g
   class="st24"
   clip-path="url(#SVGID_46_)"
   id="g4742">
					<defs
   id="defs4735">
						<rect
   id="SVGID_47_"
   x="453.89999"
   y="275.89999"
   width="49.599998"
   height="65.300003" />
					</defs>
					<clipPath
   id="SVGID_48_">
						<use
   xlink:href="#SVGID_47_"
   style="overflow:visible"
   id="use4737"
   x="0"
   y="0"
   width="100%"
   height="100%" />
					</clipPath>
					<path
   class="st25"
   d="m 498.5,341.2 c -1.6,0 -3.1,-0.7 -4.1,-2.1 l -39.6,-55.3 c -1.6,-2.2 -1.1,-5.4 1.2,-7 2.2,-1.6 5.4,-1.1 7,1.2 l 39.6,55.3 c 1.6,2.2 1.1,5.4 -1.2,7 -0.9,0.6 -1.9,0.9 -2.9,0.9"
   clip-path="url(#SVGID_48_)"
   id="path4740"
   inkscape:connector-curvature="0"
   style="fill:#0a193a" />
				</g>
			</g>
		</g>
		<g
   class="st3"
   clip-path="url(#SVGID_4_)"
   id="g4766"
   style="opacity:0.7">
			<g
   id="g4764">
				<defs
   id="defs4749">
					<rect
   id="SVGID_49_"
   x="455.60001"
   y="276"
   width="47.099998"
   height="65.099998" />
				</defs>
				<clipPath
   id="SVGID_50_">
					<use
   xlink:href="#SVGID_49_"
   style="overflow:visible"
   id="use4751"
   x="0"
   y="0"
   width="100%"
   height="100%" />
				</clipPath>
				<g
   class="st26"
   clip-path="url(#SVGID_50_)"
   id="g4762">
					<defs
   id="defs4755">
						<rect
   id="SVGID_51_"
   x="455.60001"
   y="276"
   width="47.099998"
   height="65.099998" />
					</defs>
					<clipPath
   id="SVGID_52_">
						<use
   xlink:href="#SVGID_51_"
   style="overflow:visible"
   id="use4757"
   x="0"
   y="0"
   width="100%"
   height="100%" />
					</clipPath>
					<path
   class="st27"
   d="m 460.6,341.2 c -1,0 -1.9,-0.3 -2.8,-0.9 -2.3,-1.5 -2.9,-4.6 -1.4,-6.9 l 37.1,-55.1 c 1.5,-2.3 4.6,-2.9 6.9,-1.4 2.3,1.5 2.9,4.6 1.4,6.9 L 464.7,339 c -0.9,1.4 -2.5,2.2 -4.1,2.2"
   clip-path="url(#SVGID_52_)"
   id="path4760"
   inkscape:connector-curvature="0"
   style="fill:#0a193a" />
				</g>
			</g>
		</g>
		<g
   class="st3"
   clip-path="url(#SVGID_4_)"
   id="g4786"
   style="opacity:0.7">
			<g
   id="g4784">
				<defs
   id="defs4769">
					<rect
   id="SVGID_53_"
   x="392"
   y="276.60001"
   width="59.099998"
   height="64.599998" />
				</defs>
				<clipPath
   id="SVGID_54_">
					<use
   xlink:href="#SVGID_53_"
   style="overflow:visible"
   id="use4771"
   x="0"
   y="0"
   width="100%"
   height="100%" />
				</clipPath>
				<g
   class="st28"
   clip-path="url(#SVGID_54_)"
   id="g4782">
					<defs
   id="defs4775">
						<rect
   id="SVGID_55_"
   x="392"
   y="276.60001"
   width="59.099998"
   height="64.599998" />
					</defs>
					<clipPath
   id="SVGID_56_">
						<use
   xlink:href="#SVGID_55_"
   style="overflow:visible"
   id="use4777"
   x="0"
   y="0"
   width="100%"
   height="100%" />
					</clipPath>
					<path
   class="st29"
   d="m 421.5,341.2 c -17.1,0 -29.6,-13.6 -29.6,-32.3 0,-18.7 12.4,-32.3 29.6,-32.3 17.1,0 29.5,13.6 29.5,32.3 0,2.8 -2.2,5 -5,5 -2.8,0 -5,-2.2 -5,-5 0,-10.7 -6.1,-22.3 -19.5,-22.3 -13.4,0 -19.6,11.6 -19.6,22.3 0,10.7 6.1,22.3 19.6,22.3 11.2,0 16.2,-6.4 16.4,-6.7 1.6,-2.3 4.7,-2.8 7,-1.2 2.3,1.6 2.8,4.7 1.2,7 -0.4,0.4 -8,10.9 -24.6,10.9"
   clip-path="url(#SVGID_56_)"
   id="path4780"
   inkscape:connector-curvature="0"
   style="fill:#0a193a" />
				</g>
			</g>
		</g>
		<g
   class="st3"
   clip-path="url(#SVGID_4_)"
   id="g4806"
   style="opacity:0.7">
			<g
   id="g4804">
				<defs
   id="defs4789">
					<rect
   id="SVGID_57_"
   x="511.89999"
   y="256.20001"
   width="11.9"
   height="11.9" />
				</defs>
				<clipPath
   id="SVGID_58_">
					<use
   xlink:href="#SVGID_57_"
   style="overflow:visible"
   id="use4791"
   x="0"
   y="0"
   width="100%"
   height="100%" />
				</clipPath>
				<g
   class="st30"
   clip-path="url(#SVGID_58_)"
   id="g4802">
					<defs
   id="defs4795">
						<rect
   id="SVGID_59_"
   x="511.89999"
   y="256.20001"
   width="11.9"
   height="11.9" />
					</defs>
					<clipPath
   id="SVGID_60_">
						<use
   xlink:href="#SVGID_59_"
   style="overflow:visible"
   id="use4797"
   x="0"
   y="0"
   width="100%"
   height="100%" />
					</clipPath>
					<path
   class="st31"
   d="m 517.9,256.2 c -3.3,0 -5.9,2.7 -5.9,5.9 0,3.3 2.7,5.9 5.9,5.9 3.3,0 5.9,-2.7 5.9,-5.9 0,-3.2 -2.7,-5.9 -5.9,-5.9"
   clip-path="url(#SVGID_60_)"
   id="path4800"
   inkscape:connector-curvature="0"
   style="fill:#0a193a" />
				</g>
			</g>
		</g>
		<g
   class="st3"
   clip-path="url(#SVGID_4_)"
   id="g4826"
   style="opacity:0.7">
			<g
   id="g4824">
				<defs
   id="defs4809">
					<rect
   id="SVGID_61_"
   x="596.90002"
   y="276"
   width="10"
   height="65.099998" />
				</defs>
				<clipPath
   id="SVGID_62_">
					<use
   xlink:href="#SVGID_61_"
   style="overflow:visible"
   id="use4811"
   x="0"
   y="0"
   width="100%"
   height="100%" />
				</clipPath>
				<g
   class="st32"
   clip-path="url(#SVGID_62_)"
   id="g4822">
					<defs
   id="defs4815">
						<rect
   id="SVGID_63_"
   x="596.90002"
   y="276"
   width="10"
   height="65.099998" />
					</defs>
					<clipPath
   id="SVGID_64_">
						<use
   xlink:href="#SVGID_63_"
   style="overflow:visible"
   id="use4817"
   x="0"
   y="0"
   width="100%"
   height="100%" />
					</clipPath>
					<path
   class="st33"
   d="m 601.9,341.2 c -2.8,0 -5,-2.2 -5,-5 V 281 c 0,-2.8 2.2,-5 5,-5 2.8,0 5,2.2 5,5 v 55.1 c 0,2.9 -2.3,5.1 -5,5.1"
   clip-path="url(#SVGID_64_)"
   id="path4820"
   inkscape:connector-curvature="0"
   style="fill:#0a193a" />
				</g>
			</g>
		</g>
		<g
   class="st3"
   clip-path="url(#SVGID_4_)"
   id="g4846"
   style="opacity:0.7">
			<g
   id="g4844">
				<defs
   id="defs4829">
					<rect
   id="SVGID_65_"
   x="595.90002"
   y="256.20001"
   width="11.9"
   height="11.9" />
				</defs>
				<clipPath
   id="SVGID_66_">
					<use
   xlink:href="#SVGID_65_"
   style="overflow:visible"
   id="use4831"
   x="0"
   y="0"
   width="100%"
   height="100%" />
				</clipPath>
				<g
   class="st34"
   clip-path="url(#SVGID_66_)"
   id="g4842">
					<defs
   id="defs4835">
						<rect
   id="SVGID_67_"
   x="595.90002"
   y="256.20001"
   width="11.9"
   height="11.9" />
					</defs>
					<clipPath
   id="SVGID_68_">
						<use
   xlink:href="#SVGID_67_"
   style="overflow:visible"
   id="use4837"
   x="0"
   y="0"
   width="100%"
   height="100%" />
					</clipPath>
					<path
   class="st35"
   d="m 601.9,256.2 c -3.3,0 -5.9,2.7 -5.9,5.9 0,3.3 2.7,5.9 5.9,5.9 3.3,0 5.9,-2.7 5.9,-5.9 0,-3.2 -2.7,-5.9 -5.9,-5.9"
   clip-path="url(#SVGID_68_)"
   id="path4840"
   inkscape:connector-curvature="0"
   style="fill:#0a193a" />
				</g>
			</g>
		</g>
	</g>
</g>
</svg>