<svg xmlns="http://www.w3.org/2000/svg" width="835.566" height="257.917" viewBox="0 0 835.566 257.917">
  <title>ocsf_logo_rgb_color (2)</title>
  <g>
    <g>
      <path d="M579.889,176.785c-2.412-.552-4.254-2.484-4.254-7.9V123.169c0-29.207-5.638-41.417-40.706-41.417-37.178,0-41.194,17.179-41.194,24.562a42.929,42.929,0,0,0,3.124,16.1l.426,1.075H514.91v-18.9c5.274-2.555,10.851-3.509,20.019-3.509,7.91,0,15.556,1.359,19.532,3.428V127.9l-16.956,2.129c-24.724,2.738-50.016,8.924-50.016,34.014,0,19.856,12.331,31.234,33.81,31.234a47.992,47.992,0,0,0,34.886-14.725c2.028,8.58,8.944,13.59,19.146,13.59a71.456,71.456,0,0,0,13.508-1.177l1.359-.284V177.667A92.011,92.011,0,0,1,579.889,176.785Zm-54.209-.132c-10.81,0-16.084-4.5-16.084-13.771,0-9.452,7.282-13.691,28.8-16.794l16.064-2.272V164.95A43.033,43.033,0,0,1,525.68,176.653Z" fill="#303033"/>
      <path d="M468.449,162.387l-.69.451c-12.945,8.344-26.178,11.384-42.584,11.384-37.663,0-43.274-38.653-43.274-61.71,0-27.852,7.78-61.058,44.873-61.058,10.431,0,18.054,2.169,26.053,5.472L455.24,85.65h18.168l1-43.173-1.015-.464c-16.287-7.4-31.382-10.983-46.151-10.983-31.175,0-53.2,15.847-62.639,44.834a2.045,2.045,0,0,0-.1.308c-.044-.145-.081-.289-.125-.427-8.488-29.7-28.661-44.715-60.068-44.715-43.048,0-64.889,27.633-64.889,82.172,0,53.629,22.286,81.971,64.425,81.971,31.444,0,51.724-14.851,60.35-44.145.044-.126.081-.264.125-.389.044.149.079.269.119.407,8.8,28.887,29.3,44.127,59.586,44.127,20.116,0,35.105-3.486,50.865-13.579l1.116-.708ZM304.306,175.156c-28.987,0-41.914-19.107-41.914-61.954,0-42.44,13.253-62.212,41.694-62.212,28.969,0,41.876,19.182,41.876,62.212C345.962,156.049,333.117,175.156,304.306,175.156Z" fill="#303033"/>
      <path d="M774.763,177.829v14.789H727.276V177.829l12.844-3.039V123.8c0-16.49-4.356-22.062-17.22-22.062-9.6,0-19,3.829-24.149,9.765V174.79l12.824,3.039v14.789h-46.8V177.829l13.067-3.039V112.23c-3.647-6.969-10.211-10.494-19.53-10.494-9.441,0-16.835,3.12-23.217,9.826V174.79l12.824,3.039v14.789H600.212V177.829l14.2-3.039V103.134L599.421,100.1V84.05H633.7v8.57a42.887,42.887,0,0,1,28.768-10.859c13.817,0,22.771,4.173,29.5,13.9,8.509-8.975,20.624-13.9,34.38-13.9,23.986,0,34.683,12.6,34.683,40.9V174.79Z" fill="#303033"/>
      <path d="M832.217,191.787l-1.175.466a45.427,45.427,0,0,1-16.774,2.9c-22.143,0-24.98-16.308-24.98-30.53V47.766l-19.367-4.051V28.7H809.75V162.777c0,10.474,3,12.378,8.914,12.378a28.991,28.991,0,0,0,9.805-1.5l2.067-.75Z" fill="#303033"/>
    </g>
    <g>
      <path d="M250.455,256.794a18.833,18.833,0,0,1-6.216-2.921l2.746-6.09a18.609,18.609,0,0,0,5.342,2.645,20.044,20.044,0,0,0,6.189,1,9.889,9.889,0,0,0,5.092-1.022,3.089,3.089,0,0,0,1.648-2.72,2.606,2.606,0,0,0-.973-2.074,7.421,7.421,0,0,0-2.5-1.321q-1.524-.5-4.119-1.1a56.347,56.347,0,0,1-6.54-1.9,10.623,10.623,0,0,1-4.368-3.045,8.221,8.221,0,0,1-1.821-5.589,9.73,9.73,0,0,1,1.647-5.518,11.076,11.076,0,0,1,4.967-3.918,20.252,20.252,0,0,1,8.112-1.448,26.788,26.788,0,0,1,6.539.8,19.327,19.327,0,0,1,5.592,2.295l-2.5,6.141a19.486,19.486,0,0,0-9.685-2.746,9.1,9.1,0,0,0-5.017,1.1,3.354,3.354,0,0,0-1.622,2.9,2.83,2.83,0,0,0,1.872,2.671,29.407,29.407,0,0,0,5.715,1.721,57.625,57.625,0,0,1,6.54,1.9,10.871,10.871,0,0,1,4.368,3,8.038,8.038,0,0,1,1.822,5.542,9.543,9.543,0,0,1-1.672,5.465,11.252,11.252,0,0,1-5.017,3.921,20.491,20.491,0,0,1-8.137,1.447A28.65,28.65,0,0,1,250.455,256.794Z" fill="#f67242"/>
      <path d="M286.247,255.944a13.159,13.159,0,0,1-5.267-4.916,14.382,14.382,0,0,1,0-14.278,13.166,13.166,0,0,1,5.267-4.916,17.175,17.175,0,0,1,15.2,0,13.216,13.216,0,0,1,5.242,4.916,14.382,14.382,0,0,1,0,14.278,13.209,13.209,0,0,1-5.242,4.916,17.175,17.175,0,0,1-15.2,0Zm12.53-6.639a8.592,8.592,0,0,0,0-10.832,6.485,6.485,0,0,0-4.917-2.023,6.56,6.56,0,0,0-4.942,2.023,8.5,8.5,0,0,0,0,10.832,6.567,6.567,0,0,0,4.942,2.023A6.492,6.492,0,0,0,298.777,249.305Z" fill="#f67242"/>
      <path d="M324.821,231.058h6.889v5.992h-6.69v20.268h-7.787V237.05H313.09v-5.992h4.143v-1.2a9.791,9.791,0,0,1,2.72-7.287q2.721-2.7,7.663-2.7a14.37,14.37,0,0,1,3.319.374,8.093,8.093,0,0,1,2.621,1.073l-2.046,5.642a5.331,5.331,0,0,0-3.146-.95q-3.545,0-3.543,3.9Z" fill="#f67242"/>
      <path d="M356.759,256.02a8.031,8.031,0,0,1-2.82,1.274,14.364,14.364,0,0,1-3.52.423q-4.791,0-7.413-2.447t-2.621-7.189V237.05h-4.143v-5.992h4.143v-6.539h7.787v6.539h6.69v5.992h-6.69v10.933a3.658,3.658,0,0,0,.874,2.619,3.23,3.23,0,0,0,2.471.924,5,5,0,0,0,3.145-1Z" fill="#f67242"/>
      <path d="M407.029,230.461l-9.735,26.857h-7.488l-6.041-16.674-6.239,16.674h-7.488l-9.685-26.857h7.338l6.34,18.17,6.59-18.17h6.589l6.39,18.17,6.54-18.17Z" fill="#f67242"/>
      <path d="M433.472,233.032q3.344,2.968,3.344,8.96v15.326h-7.289v-3.345q-2.2,3.746-8.186,3.744a12.7,12.7,0,0,1-5.367-1.049,7.994,7.994,0,0,1-3.469-2.9,7.533,7.533,0,0,1-1.2-4.192,7,7,0,0,1,2.82-5.892q2.82-2.146,8.711-2.147h6.191a4.964,4.964,0,0,0-1.548-3.918,6.814,6.814,0,0,0-4.643-1.374,13.53,13.53,0,0,0-4.218.676,11.156,11.156,0,0,0-3.52,1.821l-2.794-5.442a16.871,16.871,0,0,1,5.265-2.4,23.634,23.634,0,0,1,6.316-.849Q430.126,230.061,433.472,233.032Zm-6.64,18.52a5.061,5.061,0,0,0,2.2-2.721v-2.745h-5.342q-4.793,0-4.792,3.145a2.8,2.8,0,0,0,1.172,2.371,5.29,5.29,0,0,0,3.221.874A6.78,6.78,0,0,0,426.832,251.552Z" fill="#f67242"/>
      <path d="M457.188,231.058a14.026,14.026,0,0,1,5.466-1v7.189q-1.3-.1-1.747-.1a7.14,7.14,0,0,0-5.242,1.871q-1.9,1.875-1.9,5.616v12.681h-7.787V230.461h7.438v3.544A8.682,8.682,0,0,1,457.188,231.058Z" fill="#f67242"/>
      <path d="M495.756,246.086H475.438a6.324,6.324,0,0,0,2.6,3.943,8.6,8.6,0,0,0,5.092,1.447,10.268,10.268,0,0,0,3.719-.624,9.034,9.034,0,0,0,3.021-1.971l4.143,4.492q-3.8,4.345-11.083,4.344a17.519,17.519,0,0,1-8.036-1.773,12.979,12.979,0,0,1-5.392-4.916,13.537,13.537,0,0,1-1.9-7.139,13.712,13.712,0,0,1,1.872-7.113,13.113,13.113,0,0,1,5.142-4.942,15.917,15.917,0,0,1,14.452-.076,12.409,12.409,0,0,1,5.017,4.868,14.521,14.521,0,0,1,1.822,7.363Q495.906,244.139,495.756,246.086Zm-18.221-8.636a6.367,6.367,0,0,0-2.2,4.092h13.228a6.442,6.442,0,0,0-2.2-4.068,6.573,6.573,0,0,0-4.393-1.522A6.7,6.7,0,0,0,477.535,237.45Z" fill="#f67242"/>
      <path d="M529.352,228.863V238.1h16.173v6.492H529.352v12.729h-8.087V222.374h26.408v6.489Z" fill="#f67242"/>
      <path d="M559.534,255.944a13.159,13.159,0,0,1-5.267-4.916,14.382,14.382,0,0,1,0-14.278,13.166,13.166,0,0,1,5.267-4.916,17.175,17.175,0,0,1,15.2,0,13.222,13.222,0,0,1,5.242,4.916,14.388,14.388,0,0,1,0,14.278,13.215,13.215,0,0,1-5.242,4.916,17.175,17.175,0,0,1-15.2,0Zm12.53-6.639a8.592,8.592,0,0,0,0-10.832,6.485,6.485,0,0,0-4.917-2.023,6.56,6.56,0,0,0-4.942,2.023,8.5,8.5,0,0,0,0,10.832,6.567,6.567,0,0,0,4.942,2.023A6.492,6.492,0,0,0,572.064,249.305Z" fill="#f67242"/>
      <path d="M616.313,230.461v26.857h-7.388v-3.195a10.342,10.342,0,0,1-3.694,2.671,11.638,11.638,0,0,1-4.643.923,11.442,11.442,0,0,1-8.387-3.044q-3.094-3.048-3.1-9.037V230.461h7.788v14.028q0,6.489,5.441,6.489a5.849,5.849,0,0,0,4.493-1.823,7.686,7.686,0,0,0,1.7-5.416V230.461Z" fill="#f67242"/>
      <path d="M650.029,233.056q3.071,3,3.07,8.886v15.376h-7.787V243.139a7,7,0,0,0-1.4-4.766,5.125,5.125,0,0,0-4.044-1.573,6.2,6.2,0,0,0-4.692,1.823,7.54,7.54,0,0,0-1.747,5.416v13.279h-7.788V230.461h7.438v3.144a10.34,10.34,0,0,1,3.844-2.621,13.4,13.4,0,0,1,5.042-.923A11.049,11.049,0,0,1,650.029,233.056Z" fill="#f67242"/>
      <path d="M689.76,220.277v37.041h-7.438v-3.095q-2.895,3.493-8.387,3.494a13.942,13.942,0,0,1-6.864-1.7,12.164,12.164,0,0,1-4.817-4.842,16.079,16.079,0,0,1,0-14.578,12.158,12.158,0,0,1,4.817-4.842,13.953,13.953,0,0,1,6.864-1.7,10.219,10.219,0,0,1,8.038,3.244V220.277Zm-9.584,29.028a8.51,8.51,0,0,0,0-10.832,6.988,6.988,0,0,0-9.835,0,8.51,8.51,0,0,0,0,10.832,6.988,6.988,0,0,0,9.835,0Z" fill="#f67242"/>
      <path d="M719.632,233.032q3.345,2.968,3.345,8.96v15.326h-7.289v-3.345q-2.2,3.746-8.187,3.744a12.7,12.7,0,0,1-5.366-1.049,8,8,0,0,1-3.47-2.9,7.533,7.533,0,0,1-1.2-4.192,7,7,0,0,1,2.819-5.892q2.822-2.146,8.712-2.147h6.19a4.963,4.963,0,0,0-1.547-3.918A6.816,6.816,0,0,0,709,236.25a13.526,13.526,0,0,0-4.218.676,11.145,11.145,0,0,0-3.52,1.821l-2.795-5.442a16.888,16.888,0,0,1,5.266-2.4,23.621,23.621,0,0,1,6.315-.849Q716.287,230.061,719.632,233.032Zm-6.64,18.52a5.057,5.057,0,0,0,2.2-2.721v-2.745h-5.341q-4.792,0-4.793,3.145a2.8,2.8,0,0,0,1.173,2.371,5.287,5.287,0,0,0,3.221.874A6.776,6.776,0,0,0,712.992,251.552Z" fill="#f67242"/>
      <path d="M749.339,256.02a8.022,8.022,0,0,1-2.82,1.274,14.356,14.356,0,0,1-3.519.423q-4.793,0-7.413-2.447t-2.621-7.189V237.05h-4.143v-5.992h4.143v-6.539h7.787v6.539h6.69v5.992h-6.69v10.933a3.663,3.663,0,0,0,.873,2.619,3.232,3.232,0,0,0,2.471.924,5.005,5.005,0,0,0,3.146-1Z" fill="#f67242"/>
      <path d="M756.322,225.469a4.231,4.231,0,0,1,0-6.192,4.953,4.953,0,0,1,3.5-1.247,5.071,5.071,0,0,1,3.494,1.2,3.844,3.844,0,0,1,1.348,3,4.236,4.236,0,0,1-1.348,3.219,4.88,4.88,0,0,1-3.494,1.273A4.944,4.944,0,0,1,756.322,225.469Zm-.4,4.992h7.788v26.857h-7.788Z" fill="#f67242"/>
      <path d="M778.268,255.944A13.166,13.166,0,0,1,773,251.028a14.382,14.382,0,0,1,0-14.278,13.172,13.172,0,0,1,5.267-4.916,17.177,17.177,0,0,1,15.2,0,13.229,13.229,0,0,1,5.242,4.916,14.388,14.388,0,0,1,0,14.278,13.222,13.222,0,0,1-5.242,4.916,17.177,17.177,0,0,1-15.2,0Zm12.53-6.639a8.592,8.592,0,0,0,0-10.832,6.484,6.484,0,0,0-4.917-2.023,6.563,6.563,0,0,0-4.942,2.023,8.506,8.506,0,0,0,0,10.832,6.57,6.57,0,0,0,4.942,2.023A6.491,6.491,0,0,0,790.8,249.305Z" fill="#f67242"/>
      <path d="M832.5,233.056q3.071,3,3.07,8.886v15.376h-7.787V243.139a7,7,0,0,0-1.4-4.766,5.123,5.123,0,0,0-4.043-1.573,6.194,6.194,0,0,0-4.692,1.823,7.536,7.536,0,0,0-1.747,5.416v13.279H808.11V230.461h7.438v3.144a10.336,10.336,0,0,1,3.843-2.621,13.408,13.408,0,0,1,5.042-.923A11.05,11.05,0,0,1,832.5,233.056Z" fill="#f67242"/>
    </g>
    <g>
      <g>
        <path d="M25.237,116.647c-.06.089-.12.164-.18.255a1.685,1.685,0,0,1,.165-.285C25.222,116.631,25.222,116.647,25.237,116.647Z" fill="#f47851"/>
        <path d="M163.785,166.364l-.053,90.738-11.994,0-7.99-80.808a101.231,101.231,0,0,0,10.976-4.842c4.105-2.142,8.35-4.7,8.981-5.131A.052.052,0,0,1,163.785,166.364Z" fill="#f47851"/>
        <path d="M25.057,116.9a2.173,2.173,0,0,0-.15.255c0-.015-.015-.031-.015-.046C24.952,117.036,25,116.976,25.057,116.9Z" fill="#f47851"/>
        <path d="M54.97,167.725a99.414,99.414,0,0,0,9.621,5.669c4.288,2,9.352,3.983,9.352,3.983l-19.529,32.5,13.725,47.255-13.725,0L37.241,209.3Z" fill="#f47851"/>
      </g>
      <path d="M129.505,170.776l.185,86.314H118.4s-5.628-37.573-5.673-37.868c-3.455-21.822-6.961-45.358-6.963-45.358-.925.045-1.874.067-2.822.067A76.533,76.533,0,0,1,66.444,164.5c-5.986-3.263-14.186-9.945-14.955-10.643-5.714,25.284-33.35,48.7-33.35,48.7l-1.7,54.434-11.451-.022L0,198.73c7.672-9.437,12.777-18.191,16.081-30.23a53.149,53.149,0,0,0,1.381-16.045c-.007-.016-5.056-.388-5.079-.388a51.178,51.178,0,0,1-.964-11.335,45.47,45.47,0,0,1,4.158-18.994,30.955,30.955,0,0,1,4.9-7.7,48.943,48.943,0,0,1,15.138-11.584c1.9-.934,5.355-1.943,7.047-3.231,4.624-3.521,6.96-7.7,10.759-12.083,3.661-4.222,6.79-9.086,10.739-13.034A17.778,17.778,0,0,1,75.6,69.625,14.241,14.241,0,0,1,85.74,73.834c2.648,2.648,12.544,18.411,17.455,18.411,5.2,0,12.731-14.587,17.238-18.411a18.624,18.624,0,0,1,3.553-2.58,14.138,14.138,0,0,1,6.609-1.629,14.43,14.43,0,0,1,10.161,4.209c1.811,1.833,14.439,22.857,18.377,27.565,4.724-1.584,11.46-14.64,7.354-45.071-.385.038-21.159-6.431-21.159-6.431-3.145,3.228-13.646,1.137-11.687-6.257.144-.547,10.4-10.378,10.4-10.378l16.383.641s9.606-4.617,18.033-2.762c.046.076,14.861,3.82,14.861,3.82S195.35,57.72,195.35,81.6C195.35,117.412,177.092,159.4,129.505,170.776Z" fill="#f67242"/>
      <path d="M39.341,39.614l-8.111-5.38,8.891-11.7L26.786,18.012l3.042-8.967L42.851,13.8V0h9.981V13.8L65.855,9.045,68.9,18.012,55.561,22.538l8.891,11.7-8.111,5.38L47.841,28Z" fill="#303033"/>
    </g>
  </g>
</svg>
